<svg width="1139" height="46" viewBox="0 0 1139 46" fill="none" xmlns="http://www.w3.org/2000/svg">
<path d="M29.18 27.5749C28.645 28.8111 28.0116 29.9489 27.2775 30.9954C26.2773 32.4215 25.4582 33.4086 24.827 33.957C23.8486 34.8568 22.8001 35.3176 21.6775 35.3439C20.8716 35.3439 19.8996 35.1147 18.7683 34.6494C17.6331 34.1862 16.59 33.957 15.6362 33.957C14.6359 33.957 13.563 34.1862 12.4155 34.6494C11.2662 35.1147 10.3403 35.357 9.63245 35.3811C8.5559 35.4267 7.48285 34.9528 6.41173 33.957C5.7281 33.3606 4.87303 32.3384 3.84865 30.8904C2.7496 29.344 1.84604 27.5509 1.13815 25.5065C0.380039 23.2984 0 21.1601 0 19.09C0 16.7187 0.512402 14.6734 1.53872 12.9595C2.34533 11.5829 3.41839 10.4969 4.76141 9.69975C6.10444 8.90253 7.55557 8.49626 9.11832 8.47027C9.97341 8.47027 11.0947 8.73479 12.4882 9.25461C13.8778 9.77617 14.77 10.0407 15.1612 10.0407C15.4536 10.0407 16.4448 9.7314 18.125 9.11483C19.714 8.54303 21.055 8.30626 22.1537 8.39952C25.1306 8.63977 27.3672 9.8133 28.8545 11.9276C26.1921 13.5408 24.8751 15.8002 24.9013 18.6988C24.9253 20.9565 25.7444 22.8353 27.3541 24.3271C28.0834 25.0195 28.8983 25.5546 29.8047 25.9346C29.6082 26.5047 29.4005 27.0507 29.18 27.5749ZM22.3524 0.707882C22.3524 2.47749 21.7059 4.12976 20.4173 5.6591C18.8622 7.47715 16.9812 8.52774 14.9414 8.36197C14.9154 8.14967 14.9004 7.92622 14.9004 7.69142C14.9004 5.99261 15.6399 4.17453 16.9532 2.68802C17.6089 1.93536 18.4428 1.30955 19.4541 0.810317C20.4631 0.318537 21.4176 0.0465728 22.3153 0C22.3415 0.236569 22.3524 0.473152 22.3524 0.707858V0.707882Z" fill="#F9F4DA"/>
<path d="M160.722 29.3943V3H155.057V34.2748C159.502 34.4971 164.034 34.715 168.348 34.9372V29.8388C165.82 29.6165 163.249 29.5032 160.722 29.3943ZM109.389 8.09845V3H96.0673V35.7129C100.503 35.3817 104.939 35.0505 109.389 34.715V29.6165C106.818 29.7255 104.273 29.9477 101.724 30.1699V21.9645H108.386V16.7527H101.724V8.09845H109.389ZM77.325 37.7305V18.1908L83.9792 36.933C85.975 36.7151 87.9708 36.4929 90.0799 36.2706V3H84.6459V23.1846L77.5473 3H72V38.3841L77.325 37.7305ZM120.021 34.2748C121.895 34.1615 123.769 34.1615 125.686 34.0526V8.09845H130.872V3H114.792V8.09845H120.021V34.2748ZM137.408 33.9393H141.853V21.9645H148.607V16.7527H141.853V8.09845H149.61V3H136.319V33.9393H137.408ZM179.329 35.8262V3H173.795V35.2727C175.581 35.495 177.455 35.6039 179.329 35.8262ZM183.556 36.1573C185.342 36.3796 187.216 36.4929 189.003 36.7151L192.968 26.8451L196.89 37.5997C198.764 37.9483 200.769 38.1662 202.729 38.3841L195.975 19.4109L202.729 3H196.977L193.317 11.9811L190.223 3H184.558L190.441 19.302L183.556 36.1573Z" fill="#F9F4DA"/>
<path d="M410.737 19.0086V16.0923H407.116V11.5598L406.995 11.5987L403.595 12.6347H403.53V16.0664H398.164V14.1498C398.164 13.2692 398.371 12.5829 398.76 12.1296C399.148 11.6764 399.718 11.4498 400.417 11.4498C400.935 11.4498 401.479 11.5793 401.997 11.8124L402.127 11.8642V8.8067L402.075 8.7808C401.583 8.60598 400.909 8.51533 400.081 8.51533C399.032 8.51533 398.073 8.74843 397.232 9.20685C396.39 9.64715 395.729 10.3076 395.276 11.1364C394.81 11.9652 394.577 12.9235 394.577 13.9724V16.0703H392.065V18.984H394.59V31.2604H398.203V18.984H403.573V26.7798C403.573 29.9913 405.083 31.623 408.08 31.623C408.572 31.623 409.09 31.5608 409.608 31.4547C410.145 31.3381 410.514 31.2216 410.722 31.105L410.773 31.0791V28.1395L410.627 28.2379C410.433 28.3674 410.187 28.4801 409.902 28.5578C409.617 28.6355 409.371 28.6873 409.187 28.6873C408.488 28.6873 407.97 28.506 407.651 28.1343C407.322 27.7652 407.159 27.1113 407.159 26.1918V19.0176H410.759L410.751 18.9995L410.737 19.0086ZM383.944 28.695C382.632 28.695 381.596 28.2586 380.862 27.4001C380.133 26.5389 379.761 25.31 379.761 23.7482C379.761 22.1373 380.133 20.8734 380.866 19.9979C381.596 19.1277 382.622 18.6848 383.917 18.6848C385.173 18.6848 386.157 19.107 386.882 19.941C387.607 20.7801 387.97 22.0311 387.97 23.6602C387.97 25.31 387.633 26.5778 386.96 27.4247C386.286 28.2664 385.276 28.6938 383.956 28.6938L383.944 28.695ZM384.111 15.7271C381.612 15.7271 379.62 16.4601 378.201 17.9078C376.789 19.3582 376.066 21.3603 376.066 23.8648C376.066 26.2475 376.766 28.1576 378.155 29.5497C379.541 30.9483 381.428 31.6735 383.759 31.6735C386.183 31.6735 388.136 30.9224 389.55 29.4656C390.974 27.9996 391.681 26.0131 391.681 23.5695C391.681 21.1531 391.008 19.2235 389.674 17.8457C388.34 16.4549 386.47 15.753 384.106 15.753L384.111 15.7271ZM370.224 15.753C368.514 15.753 367.11 16.1881 366.028 17.048C364.95 17.913 364.396 19.0422 364.396 20.4149C364.396 21.1323 364.518 21.7617 364.754 22.3056C364.987 22.8417 365.349 23.3157 365.834 23.7145C366.313 24.103 367.051 24.5174 368.035 24.9422C368.864 25.2789 369.472 25.5638 369.866 25.7969C370.255 26.0131 370.529 26.2372 370.669 26.4534C370.824 26.6606 370.902 26.9585 370.902 27.3081C370.902 28.3363 370.141 28.831 368.571 28.831C367.986 28.831 367.32 28.7093 366.592 28.4684C365.858 28.2302 365.177 27.8857 364.563 27.4428L364.408 27.3392V30.8098L364.46 30.8357C364.978 31.0688 365.616 31.2759 366.376 31.4313C367.134 31.5997 367.826 31.6774 368.422 31.6774C370.274 31.6774 371.763 31.2371 372.851 30.3772C373.939 29.507 374.496 28.3441 374.496 26.9274C374.496 25.9044 374.198 25.0238 373.609 24.318C373.026 23.6109 372.016 22.966 370.6 22.3963C369.483 21.943 368.761 21.5675 368.451 21.2826C368.166 21.0029 368.032 20.6092 368.032 20.1119C368.032 19.6716 368.214 19.3168 368.583 19.0319C368.953 18.7405 369.471 18.5955 370.119 18.5955C370.721 18.5955 371.336 18.6861 371.957 18.8739C372.566 19.0656 373.104 19.3142 373.55 19.6198L373.702 19.7234V16.4083L373.65 16.3824C373.229 16.2011 372.683 16.0495 372.018 15.9291C371.358 15.8035 370.758 15.7478 370.238 15.7478L370.224 15.753ZM354.957 28.7106C353.649 28.7106 352.613 28.2781 351.888 27.4156C351.15 26.5609 350.781 25.3307 350.781 23.7638C350.781 22.158 351.151 20.8889 351.887 20.0174C352.612 19.1471 353.64 18.7043 354.93 18.7043C356.186 18.7043 357.183 19.1264 357.902 19.9604C358.617 20.8021 358.99 22.0531 358.99 23.6822C358.99 25.3294 358.64 26.5959 357.967 27.4441C357.306 28.2858 356.296 28.7132 354.962 28.7132L354.957 28.7106ZM355.143 15.7504C352.631 15.7504 350.637 16.4808 349.225 17.9286C347.805 19.3789 347.089 21.3797 347.089 23.8855C347.089 26.2683 347.788 28.1771 349.165 29.5705C350.553 30.969 352.436 31.6942 354.765 31.6942C357.2 31.6942 359.142 30.9431 360.567 29.4798C361.984 28.0113 362.704 26.0248 362.704 23.5812C362.704 21.1634 362.03 19.2339 360.709 17.8573C359.375 16.4652 357.503 15.7634 355.141 15.7634L355.143 15.7504ZM341.624 18.7522V16.1104H338.05V31.3006H341.624V23.5307C341.624 22.2098 341.922 21.122 342.513 20.2997C343.096 19.4812 343.873 19.0824 344.819 19.0824C345.142 19.0824 345.505 19.1342 345.904 19.2378C346.292 19.3414 346.572 19.445 346.733 19.5745L346.888 19.6781V16.078L346.831 16.0521C346.494 15.9019 346.028 15.8294 345.432 15.8294C344.539 15.8294 343.736 16.1195 343.047 16.6841C342.438 17.1865 342.002 17.8703 341.668 18.725H341.603L341.635 18.7509L341.624 18.7522ZM331.627 15.7478C329.982 15.7478 328.519 16.091 327.275 16.7838C326.022 17.4831 325.061 18.4673 324.401 19.7364C323.753 20.9925 323.416 22.4623 323.416 24.1004C323.416 25.5379 323.743 26.851 324.375 28.0139C325.014 29.1794 325.916 30.0859 327.055 30.7204C328.187 31.3459 329.503 31.6657 330.958 31.6657C332.657 31.6657 334.105 31.329 335.271 30.6557L335.322 30.6298V27.3509L335.167 27.4583C334.64 27.8468 334.053 28.1512 333.419 28.3713C332.787 28.5914 332.212 28.7028 331.709 28.7028C330.303 28.7028 329.179 28.2625 328.361 27.4014C327.532 26.5208 327.117 25.3035 327.117 23.7754C327.117 22.2214 327.558 20.9782 328.407 20.0718C329.262 19.1394 330.386 18.6732 331.761 18.6732C332.927 18.6732 334.075 19.0746 335.158 19.8516L335.313 19.9552V16.5106L335.271 16.4847C334.863 16.2516 334.308 16.0703 333.613 15.9226C332.932 15.7802 332.261 15.7103 331.621 15.7103L331.627 15.7478ZM320.964 16.0729H317.395V31.2759H320.969V16.0729H320.964ZM319.203 9.61089C318.615 9.61089 318.102 9.81031 317.68 10.2066C317.257 10.6054 317.042 11.1053 317.042 11.6958C317.042 12.2786 317.259 12.7706 317.677 13.1591C318.091 13.5476 318.609 13.7393 319.205 13.7393C319.801 13.7393 320.319 13.545 320.74 13.1566C321.164 12.7681 321.379 12.276 321.379 11.6932C321.379 11.1234 321.172 10.6313 320.758 10.2169C320.343 9.82844 319.825 9.62125 319.204 9.62125L319.203 9.61089ZM310.281 14.9695V31.2863H313.933V10.1017H308.883L302.482 25.8461L296.253 10.0991H291.003V31.3006H294.435V14.9902H294.551L301.13 31.3044H303.713L310.188 14.9915H310.311L310.292 14.9838L310.281 14.9695ZM263.571 21.561H280.38V38.3841H263.545L263.569 21.5726L263.571 21.561ZM245.005 21.5713H261.811V38.3841H245L245.005 21.5726V21.5713ZM263.573 3.00518H280.382V19.8141H263.562L263.573 3V3.00518ZM245.005 3.00259H261.811V19.8141H245L245.005 3V3.00259Z" fill="#F9F4DA"/>
<path d="M478.566 15.2737L478.579 15.2792C478.751 15.3675 478.906 15.4866 479.035 15.6308C479.045 15.64 479.049 15.6436 479.054 15.6465H479.068C479.078 15.6469 479.088 15.6449 479.098 15.641L482.572 14.1608L479.232 10.8146L478.519 15.1759C478.514 15.207 478.524 15.2387 478.545 15.2617C478.551 15.2679 478.559 15.271 478.566 15.2737Z" fill="#F9F4DA"/>
<path d="M483.424 15.0134L479.757 16.5676L479.746 16.5722C479.712 16.586 479.671 16.6026 479.671 16.6377C479.671 16.6724 479.71 16.6881 479.744 16.7018L479.759 16.7077L488.295 20.328C488.282 20.2625 488.265 20.1988 488.245 20.1351C488.11 19.7071 487.741 19.3376 487.006 18.6007L483.424 15.0134Z" fill="#F9F4DA"/>
<path d="M487.003 22.7867C487.608 22.1805 487.965 21.8218 488.149 21.476L479.255 17.7091C479.225 17.6961 479.19 17.6823 479.161 17.6961C479.153 17.7001 479.147 17.7066 479.142 17.7133C479.14 17.7159 479.138 17.7185 479.136 17.721C478.876 18.0608 478.491 18.2819 478.067 18.3347C478.025 18.3347 478.017 18.3882 478.011 18.4344L478.008 18.4547L477.028 24.4771C477.026 24.4809 477.026 24.4855 477.026 24.49C477.02 24.5205 477.014 24.5537 477.036 24.5749C477.381 24.8422 477.599 25.2409 477.639 25.6759C477.639 25.7174 477.688 25.7257 477.734 25.7331L477.762 25.7385L482.97 26.8247L487.003 22.7867Z" fill="#F9F4DA"/>
<path d="M475.422 34.3836L482.044 27.7522L477.38 26.7935C477.371 26.792 477.362 26.792 477.353 26.7935C477.319 26.7981 477.293 26.823 477.271 26.8488C477.098 27.0564 476.878 27.2199 476.63 27.3259L476.619 27.3305C476.596 27.3395 476.572 27.3494 476.563 27.3711C476.56 27.3794 476.558 27.3887 476.557 27.3978L476.555 27.407L475.422 34.3836Z" fill="#F9F4DA"/>
<path d="M473.274 36.5347L474.02 35.7872C474.286 34.1584 475.274 28.1248 475.389 27.4234C475.392 27.4092 475.397 27.3953 475.403 27.3819C475.415 27.3515 475.426 27.3229 475.4 27.3099C474.932 27.1165 474.582 26.7154 474.453 26.2256C474.45 26.2108 474.447 26.1979 474.435 26.1859C474.415 26.1699 474.391 26.1594 474.365 26.1555L465.223 24.2674C465.202 24.2628 465.175 24.2591 465.156 24.2683C465.134 24.2799 465.122 24.3001 465.11 24.3215L465.109 24.3236L465.106 24.3265L465.087 24.3588C465.064 24.3985 465.043 24.4354 465.018 24.4724L465.009 24.4844C464.999 24.4954 464.989 24.5084 464.989 24.5231C464.986 24.5423 464.998 24.5591 465.011 24.5757L465.013 24.5785L465.022 24.5915L473.274 36.5347Z" fill="#F9F4DA"/>
<path d="M472.461 37.3477C472.461 37.3476 472.461 37.3478 472.461 37.3477V37.3477Z" fill="#F9F4DA"/>
<path d="M471.22 38.2982C471.587 38.182 471.911 37.8929 472.461 37.3477L464.169 25.2974C464.161 25.2867 464.153 25.2767 464.143 25.2679C464.123 25.2504 464.099 25.2569 464.074 25.266C463.595 25.4657 463.061 25.4927 462.564 25.3426C462.537 25.3335 462.503 25.326 462.48 25.3426C462.464 25.3546 462.454 25.3694 462.444 25.386L460.279 28.7479L468.566 37.0469C469.308 37.7907 469.679 38.1616 470.109 38.2982C470.47 38.4127 470.858 38.4127 471.22 38.2982Z" fill="#F9F4DA"/>
<path d="M457.579 26.044L459.48 27.9478L461.554 24.7243C461.565 24.7095 461.573 24.6939 461.562 24.6782L461.55 24.6634C461.508 24.6084 461.468 24.5517 461.43 24.4936C461.413 24.465 461.395 24.4336 461.364 24.4336C461.353 24.4337 461.343 24.4359 461.333 24.4401L457.579 26.044Z" fill="#F9F4DA"/>
<path d="M454.332 22.7929L456.738 25.2015L460.734 23.5061L460.755 23.4969C460.801 23.4794 460.856 23.4582 460.856 23.412C460.856 23.3696 460.806 23.3613 460.761 23.3539C460.752 23.3526 460.742 23.3511 460.733 23.3493L453.42 21.8304C453.627 22.086 453.923 22.3831 454.332 22.7929Z" fill="#F9F4DA"/>
<path d="M453 20.5919C453 20.5922 453 20.5916 453 20.5919V20.5919Z" fill="#F9F4DA"/>
<path d="M453.083 20.1351C453.036 20.283 453.008 20.4371 453 20.5919L461.247 22.3232L461.25 22.3235C461.263 22.3261 461.276 22.3285 461.287 22.3213C461.307 22.3064 461.323 22.2867 461.333 22.2641C461.428 22.0878 461.563 21.9254 461.697 21.7768C461.726 21.7492 461.698 21.7122 461.673 21.679C460.248 19.6247 458.827 17.5677 457.41 15.5081L454.332 18.5903C453.59 19.3341 453.219 19.7051 453.083 20.1351Z" fill="#F9F4DA"/>
<path d="M462.371 10.5386L458.234 14.6831L462.664 21.155C462.675 21.1728 462.689 21.1886 462.705 21.202C462.719 21.2123 462.734 21.2099 462.751 21.2071C462.753 21.2069 462.754 21.2067 462.755 21.2066C462.921 21.1761 463.086 21.1484 463.237 21.1484C463.406 21.1509 463.574 21.1738 463.737 21.2167C463.763 21.2232 463.795 21.2296 463.817 21.2158C463.835 21.2038 463.845 21.1881 463.856 21.1696L468.058 14.6517L468.071 14.6323C468.095 14.5982 468.123 14.5585 468.095 14.5308C467.661 14.0855 467.48 13.4516 467.613 12.8439C467.617 12.8263 467.621 12.8051 467.613 12.7885C467.601 12.7608 467.576 12.7497 467.549 12.7387C467.325 12.6408 466.702 12.3771 465.96 12.0628C465.792 11.9918 465.619 11.9183 465.442 11.8435L465.288 11.7782C464.064 11.2605 462.745 10.7025 462.371 10.5386Z" fill="#F9F4DA"/>
<path d="M463.208 9.70164C463.208 9.70165 463.208 9.70163 463.208 9.70164V9.70164Z" fill="#F9F4DA"/>
<path d="M468.566 4.33632L463.208 9.70164C463.345 9.75975 463.684 9.90319 464.124 10.0897C465.467 10.6589 467.755 11.6284 468.13 11.7917C468.161 11.8057 468.198 11.8204 468.223 11.7946C468.721 11.3955 469.383 11.2678 469.993 11.4532C470.02 11.4623 470.052 11.4688 470.075 11.4532C470.091 11.4411 470.104 11.4261 470.113 11.4089L473.924 5.49908L472.763 4.33632C472.021 3.59344 471.649 3.22154 471.22 3.08588C470.858 2.97137 470.47 2.97137 470.109 3.08588C469.679 3.22154 469.308 3.59345 468.566 4.33632Z" fill="#F9F4DA"/>
<path d="M478.251 9.83268L474.733 6.30932L470.986 12.126C470.964 12.168 470.99 12.2109 471.016 12.2521L471.018 12.2561C471.175 12.5128 471.272 12.8013 471.304 13.1005C471.304 13.1355 471.344 13.1521 471.378 13.166L471.389 13.1705L476.75 15.4517C476.763 15.4565 476.776 15.4586 476.789 15.4582C476.806 15.4564 476.816 15.4463 476.826 15.4352C476.832 15.4295 476.838 15.4242 476.845 15.4195C476.998 15.3077 477.168 15.2225 477.35 15.1676C477.352 15.167 477.353 15.1665 477.355 15.166C477.372 15.1612 477.388 15.1566 477.396 15.1399C477.4 15.1286 477.403 15.1168 477.403 15.1048V15.091L478.251 9.83268Z" fill="#F9F4DA"/>
<path d="M476.135 16.3829L471.109 14.2512C471.081 14.2384 471.044 14.229 471.019 14.2474C471.007 14.2579 470.996 14.2704 470.988 14.2843C470.638 14.8067 470.057 15.1121 469.43 15.1121C469.35 15.1121 469.27 15.1011 469.18 15.0887L469.17 15.0872L469.128 15.0807C469.084 15.0807 469.056 15.1241 469.032 15.1629L469.025 15.1739L464.895 21.5784L464.882 21.5968C464.857 21.6318 464.829 21.6707 464.857 21.6983C464.873 21.714 464.889 21.714 464.905 21.714C464.921 21.714 475.302 17.2808 476.098 16.9402L476.109 16.9366C476.142 16.9228 476.178 16.9077 476.178 16.8729V16.7317C476.178 16.6468 476.191 16.5629 476.205 16.489C476.21 16.4718 476.21 16.4536 476.205 16.4364C476.194 16.4102 476.168 16.398 476.142 16.3862C476.14 16.3851 476.138 16.384 476.135 16.3829Z" fill="#F9F4DA"/>
<path d="M476.67 17.8945L465.354 22.7274C465.359 22.7278 465.396 22.8555 465.433 22.9789C465.467 23.0945 465.499 23.2064 465.504 23.2073L474.528 25.0714C474.548 25.0759 474.573 25.0796 474.593 25.0705C474.614 25.0596 474.626 25.0397 474.638 25.0188L474.643 25.0104C474.91 24.5567 475.384 24.2643 475.909 24.2288C475.951 24.2288 475.958 24.1786 475.964 24.1333L475.965 24.13L475.968 24.1061L476.938 18.1427C476.94 18.1344 476.94 18.1289 476.94 18.1197C476.938 18.0957 476.915 18.081 476.892 18.068L476.867 18.0523C476.816 18.0135 476.764 17.972 476.702 17.9102C476.686 17.8945 476.67 17.8945 476.67 17.8945Z" fill="#F9F4DA"/>
<path d="M497.938 17.1145L497.852 15.5661H495.028V28.965H498.026V19.4301C498.617 18.3325 499.518 17.783 500.728 17.783C501.558 17.783 502.157 17.9873 502.523 18.3959C502.889 18.8052 503.072 19.4343 503.072 20.2846V28.965H506.068V20.1113C506.019 16.9158 504.604 15.3181 501.825 15.3181C500.221 15.3181 498.925 15.9169 497.938 17.1145Z" fill="#F9F4DA"/>
<path fill-rule="evenodd" clip-rule="evenodd" d="M510.381 27.4116C511.561 28.6127 513.101 29.2129 515.001 29.2129C516.111 29.2129 517.112 28.9924 518.005 28.5507C518.897 28.109 519.61 27.4877 520.145 26.6874L518.529 25.139C517.665 26.2542 516.547 26.8107 515.174 26.8107C514.195 26.8107 513.383 26.4888 512.737 25.8449C512.091 25.201 511.724 24.3261 511.633 23.2201H520.355V22.0063C520.355 19.876 519.86 18.2297 518.868 17.0652C517.878 15.9014 516.473 15.3195 514.656 15.3195C513.512 15.3195 512.476 15.6126 511.547 16.198C510.617 16.7848 509.895 17.6041 509.382 18.6566C508.867 19.709 508.611 20.9045 508.611 22.2416V22.6128C508.611 24.6107 509.201 26.2105 510.381 27.4116ZM512.651 18.6009C513.157 18.0233 513.82 17.7344 514.643 17.7344C515.474 17.7344 516.123 17.9923 516.593 18.5079C517.061 19.0243 517.328 19.7851 517.395 20.7925V21.0158H511.683C511.822 19.9838 512.145 19.1786 512.651 18.6009Z" fill="#F9F4DA"/>
<path d="M526.437 15.5668V12.3101L523.438 12.3094V15.5661H521.242V17.795H523.439V25.3863C523.439 27.9372 524.591 29.2122 526.893 29.2122C527.527 29.2122 528.185 29.1178 528.867 28.9276V26.5994C528.524 26.6808 528.172 26.7224 527.819 26.7234C527.301 26.7234 526.94 26.61 526.739 26.3831C526.538 26.1556 526.437 25.7864 526.437 25.275V17.7957H528.793V15.5668H526.437Z" fill="#F9F4DA"/>
<path d="M531.273 28.9657H534.271V9.94518H531.273V28.9657Z" fill="#F9F4DA"/>
<path d="M537.725 28.9657H540.723V15.5668H537.725V28.9657Z" fill="#F9F4DA"/>
<path d="M537.978 10.9357C537.686 11.2414 537.54 11.6253 537.54 12.0867C537.54 12.5404 537.686 12.9194 537.978 13.2202C538.27 13.5217 538.687 13.6725 539.23 13.6725C539.773 13.6725 540.192 13.5217 540.489 13.2202C540.784 12.9187 540.932 12.5411 540.932 12.0875C540.932 11.6253 540.784 11.2414 540.489 10.9357C540.192 10.6306 539.773 10.4778 539.23 10.4778C538.687 10.4778 538.27 10.6306 537.978 10.9357Z" fill="#F9F4DA"/>
<path d="M545.041 17.795V28.9657L548.038 28.965V17.795H550.752V15.5661H548.038V14.3777C548.038 12.8997 548.754 12.1614 550.185 12.1614C550.57 12.1567 550.954 12.1897 551.333 12.26L551.406 9.90714C550.814 9.7585 550.255 9.68453 549.728 9.68453C548.248 9.68453 547.097 10.0889 546.274 10.8976C545.452 11.707 545.041 12.8539 545.041 14.3403V15.5661H543.005V17.795H545.041Z" fill="#F9F4DA"/>
<path d="M560.325 15.5668L557.612 24.6565L554.786 15.5668H551.554L556.242 28.9037L555.811 30.0555C555.588 30.7078 555.286 31.1721 554.904 31.4482C554.521 31.7251 553.952 31.8631 553.195 31.8631L552.628 31.8258V34.154C553.154 34.3027 553.635 34.3774 554.071 34.3774C556.02 34.3774 557.402 33.2502 558.217 30.9966L563.521 15.5668H560.325Z" fill="#F9F4DA"/>
<path d="M626.038 22.932V8.62662C626.038 8.20916 626.251 8 626.679 8H631.575V23.1667C631.575 31.1552 626.358 33.9483 618.788 33.9483C611.217 33.9483 606 31.1552 606 23.1667V8.62662C606 8.20916 606.214 8 606.642 8H611.538V22.932C611.538 27.709 613.705 29.6928 618.788 29.6928C623.87 29.6928 626.038 27.709 626.038 22.932Z" fill="#F9F4DA"/>
<path d="M697.728 11.7329C697.595 12.0204 697.407 12.1508 697.006 12.1508H682.106V18.5465H694.545C694.759 18.5465 694.839 18.6504 694.759 18.8596L693.395 22.149C693.261 22.4361 693.074 22.5661 692.673 22.5661H685.369C682.988 22.5661 682.106 23.2711 682.106 24.8374V29.3537H698.932C699.147 29.3537 699.227 29.4581 699.147 29.6668L697.728 33.087C697.595 33.3737 697.407 33.5045 697.006 33.5045H678.628C677.209 33.5045 676.675 33.0346 676.675 31.9901V9.77507C676.675 8.54824 677.37 8 679.216 8H698.932C699.147 8 699.227 8.10479 699.147 8.3131L697.728 11.7329Z" fill="#F9F4DA"/>
<path fill-rule="evenodd" clip-rule="evenodd" d="M662.298 20.0604C664.438 18.964 665.32 16.9018 665.32 14.4741C665.32 8.83535 660.612 8 655.743 8H644.614C642.768 8 642.073 8.54824 642.073 9.77507V31.9901C642.073 33.0346 642.608 33.5045 644.026 33.5045H657.723C662.886 33.5045 666.578 31.5466 666.578 26.4562C666.578 23.4019 665.24 20.8174 662.298 20.0604ZM657.161 29.4061H647.501V24.733C647.501 23.1667 648.384 22.4621 650.765 22.4621H657.161C660.238 22.4621 661.094 23.6106 661.094 25.9603C661.094 28.3096 660.238 29.4061 657.161 29.4061ZM647.501 12.0984H656.145C659.034 12.0984 659.836 13.1604 659.836 15.3614C659.836 17.5629 659.034 18.6249 656.145 18.6249H647.501V12.0984Z" fill="#F9F4DA"/>
<path fill-rule="evenodd" clip-rule="evenodd" d="M727.461 23.2451L733.32 33.0606C733.427 33.2169 733.427 33.5045 733.079 33.5045H728.103C727.702 33.5045 727.541 33.3477 727.381 33.087L722.084 23.7933H717.269C714.887 23.7933 714.005 24.4983 714.005 26.0647V33.5045H709.216C708.788 33.5045 708.574 33.2953 708.574 32.8778V9.77507C708.574 8.54824 709.27 8 711.116 8H722.298C728.798 8 732.731 9.67113 732.731 15.8577C732.731 20.6351 730.377 22.5145 727.461 23.2451ZM714.005 19.8253H723.101C726.498 19.8253 727.247 18.5725 727.247 15.9621C727.247 13.3776 726.498 12.0988 723.101 12.0988H714.005V19.8253Z" fill="#F9F4DA"/>
<path d="M793.014 10.9043L796.663 6.44272C801.235 6.6919 805.494 7.78148 809.371 9.56108L809.154 9.47114C807.934 11.0605 806.324 12.2946 804.466 13.0392L804.391 13.0657C804.175 10.9441 802.689 10.4265 797.971 10.4265L793.016 38.3841L788.031 10.4207C783.342 10.4207 781.856 10.9426 781.639 13.0628C779.708 12.2976 778.099 11.0694 776.898 9.51095L776.878 9.48588C780.536 7.79327 784.794 6.70074 789.277 6.45304L789.367 6.44862L793.016 10.9043H793.014ZM793.014 5.1541C793.172 5.15115 793.358 5.15115 793.544 5.15115C799.392 5.15115 804.952 6.38964 809.974 8.61894L809.716 8.5172C810.066 7.93629 810.399 7.25954 810.675 6.55478L810.707 6.46189C805.471 4.30484 799.397 3.03686 793.029 3H793.014C786.633 3.03539 780.557 4.30337 775 6.57984L775.321 6.46336C775.652 7.28166 775.983 7.95988 776.358 8.61304L776.312 8.52752C781.086 6.39259 786.658 5.14967 792.522 5.14967C792.696 5.14967 792.868 5.15115 793.041 5.15262H793.014V5.1541Z" fill="#F9F4DA"/>
<path d="M863.708 21.6017V20.8141C861.081 20.8141 858.307 21.3756 858.307 24.4734C858.307 26.0427 859.12 27.1052 860.514 27.1052C861.537 27.1052 862.451 26.4775 863.028 25.4559C863.744 24.1985 863.708 23.0171 863.708 21.6017ZM867.373 30.4584C867.133 30.6729 866.785 30.6885 866.514 30.5462C865.308 29.5441 865.094 29.0782 864.429 28.1229C862.436 30.1582 861.024 30.7665 858.439 30.7665C855.382 30.7665 853 28.8793 853 25.1031C853 22.1534 854.601 20.1454 856.876 19.1628C858.849 18.2953 861.603 18.1413 863.708 17.9015V17.4316C863.708 16.566 863.775 15.5445 863.269 14.7978C862.824 14.1291 861.976 13.8523 861.229 13.8523C859.845 13.8523 858.607 14.5639 858.307 16.0358C858.244 16.3633 858.004 16.685 857.677 16.7006L854.15 16.3224C853.854 16.2561 853.526 16.0143 853.608 15.5601C854.421 11.2867 858.281 10 861.736 10C863.504 10 865.814 10.4698 867.21 11.8092C868.978 13.4585 868.809 15.6615 868.809 18.0594V23.7228C868.809 25.4247 869.515 26.1714 870.179 27.0916C870.414 27.4172 870.465 27.811 870.169 28.0566C869.428 28.6746 868.11 29.8248 867.383 30.4682H867.374L867.373 30.4584ZM911.349 21.6017V20.8141C908.716 20.8141 905.941 21.3756 905.941 24.4734C905.941 26.0427 906.758 27.1052 908.154 27.1052C909.172 27.1052 910.092 26.4775 910.669 25.4559C911.385 24.1985 911.349 23.0171 911.349 21.6017ZM915.013 30.4584C914.773 30.6729 914.426 30.6885 914.155 30.5462C912.948 29.5441 912.728 29.0782 912.069 28.1229C910.076 30.1582 908.661 30.7665 906.08 30.7665C903.017 30.7665 900.641 28.8793 900.641 25.1031C900.641 22.1534 902.235 20.1454 904.514 19.1628C906.487 18.2953 909.242 18.1413 911.349 17.9015V17.4316C911.349 16.566 911.416 15.5445 910.903 14.7978C910.464 14.1291 909.616 13.8523 908.864 13.8523C907.48 13.8523 906.248 14.5639 905.945 16.0358C905.885 16.3633 905.645 16.685 905.312 16.7006L901.791 16.3224C901.495 16.2561 901.161 16.0143 901.249 15.5601C902.056 11.2867 905.92 10 909.377 10C911.145 10 913.455 10.4698 914.849 11.8092C916.619 13.4585 916.449 15.6615 916.449 18.0594V23.7228C916.449 25.4247 917.155 26.1714 917.82 27.0916C918.05 27.4172 918.101 27.811 917.8 28.0566C917.06 28.6746 915.74 29.8248 915.015 30.4682L915.013 30.4584ZM959.766 30.5091H956.148C955.783 30.4838 955.493 30.1933 955.493 29.8346V11.1795C955.524 10.8383 955.826 10.5712 956.195 10.5712H959.562C959.879 10.5907 960.141 10.8013 960.211 11.0937V13.9459H960.277C961.295 11.3939 962.72 10.1774 965.231 10.1774C966.861 10.1774 968.449 10.7662 969.473 12.3765C970.422 13.8679 970.422 16.3769 970.422 18.1822V29.9223C970.381 30.2498 970.081 30.5091 969.723 30.5091H966.079C965.747 30.4838 965.471 30.2381 965.435 29.9223V19.7925C965.435 17.7533 965.669 14.7686 963.16 14.7686C962.275 14.7686 961.464 15.3612 961.059 16.26C960.548 17.4004 960.482 18.5351 960.482 19.7925V29.8346C960.482 30.2089 960.16 30.5091 959.772 30.5091H959.766ZM944.463 10.1774C949.855 10.1774 952.773 14.8095 952.773 20.6971C952.773 26.3859 949.549 30.899 944.463 30.899C939.168 30.899 936.286 26.2669 936.286 20.4983C936.286 14.6906 939.205 10.1774 944.463 10.1774ZM944.494 13.9868C941.815 13.9868 941.647 17.6344 941.647 19.9095C941.647 22.1885 941.612 27.0546 944.463 27.0546C947.28 27.0546 947.412 23.1301 947.412 20.7381C947.412 19.1628 947.346 17.2835 946.87 15.7901C946.463 14.4917 945.65 13.9868 944.494 13.9868ZM877.299 30.5091H873.665C873.318 30.4838 873.041 30.2245 873.016 29.8911V11.2419C873.016 10.8675 873.328 10.5712 873.716 10.5712H877.104C877.457 10.5907 877.738 10.8578 877.763 11.1951V13.6339H877.829C878.714 11.2769 880.375 10.1774 882.613 10.1774C884.889 10.1774 886.31 11.2769 887.331 13.6339C888.211 11.2769 890.209 10.1774 892.351 10.1774C893.874 10.1774 895.541 10.8071 896.557 12.2166C897.707 13.786 897.473 16.067 897.473 18.0652V29.8346C897.473 30.2089 897.161 30.5091 896.771 30.5091H893.143C892.78 30.4838 892.488 30.1933 892.488 29.8346V19.9504C892.488 19.1628 892.56 17.2016 892.387 16.4549C892.116 15.2014 891.303 14.8504 890.25 14.8504C889.371 14.8504 888.45 15.4373 888.078 16.3769C887.706 17.3186 887.741 18.8918 887.741 19.9504V29.8346C887.741 30.2089 887.429 30.5091 887.041 30.5091H883.413C883.044 30.4838 882.758 30.1933 882.758 29.8346V19.9504C882.758 17.8703 883.099 14.8095 880.518 14.8095C877.907 14.8095 878.009 17.7943 878.009 19.9504V29.8346C878.009 30.2089 877.697 30.5091 877.309 30.5091H877.299ZM920.871 13.864V11.1951C920.871 10.7915 921.177 10.5205 921.546 10.5205H933.491C933.873 10.5205 934.181 10.7974 934.181 11.1951V13.4799C934.181 13.864 933.853 14.365 933.28 15.1565L927.09 23.9938C929.391 23.9372 931.818 24.2804 933.904 25.4559C934.374 25.7211 934.502 26.109 934.537 26.4931V29.3394C934.537 29.7274 934.109 30.1836 933.658 29.9477C929.983 28.0215 925.102 27.811 921.039 29.9691C920.626 30.1933 920.191 29.743 920.191 29.355V26.651C920.191 26.2163 920.191 25.4754 920.631 24.8165L927.802 14.5327H921.561C921.177 14.5327 920.871 14.2617 920.871 13.864ZM928.681 34.4258C927.812 33.3106 922.914 33.8994 920.717 34.1587C920.049 34.2406 919.945 33.6576 920.55 33.2385C924.449 30.4955 930.847 31.287 931.594 32.2072C932.34 33.1313 931.399 39.5472 927.736 42.608C927.172 43.0778 926.636 42.8283 926.886 42.2044C927.71 40.1496 929.554 35.5448 928.681 34.4258ZM925.844 37.6698C926.973 36.8315 926.008 35.5857 924.852 36.0751C917.206 39.321 908.891 40.8846 901.331 40.8846C890.123 40.8846 879.272 37.8141 870.496 32.7082C869.729 32.2579 869.157 33.0455 869.796 33.6225C877.927 40.9665 888.677 45.3841 900.616 45.3841C909.131 45.3841 919.021 42.6996 925.844 37.6698Z" fill="#F9F4DA"/>
<path d="M1031 1C1020.51 1 1012 9.50653 1012 19.9996C1012 30.4939 1020.51 39 1031 39C1041.49 39 1050 30.4939 1050 19.9996C1050 9.5072 1041.49 1.00091 1031 1.00091L1031 1V1ZM1039.71 28.403C1039.37 28.9627 1038.64 29.1381 1038.08 28.797C1033.62 26.0701 1028.01 25.4541 1021.39 26.965C1020.76 27.1111 1020.12 26.7115 1019.98 26.0744C1019.83 25.4371 1020.23 24.8019 1020.87 24.6567C1028.1 23.002 1034.31 23.7142 1039.32 26.7744C1039.88 27.117 1040.06 27.8453 1039.71 28.4034L1039.71 28.403V28.403ZM1042.04 23.2303C1041.61 23.9275 1040.7 24.1462 1040 23.718C1034.9 20.5793 1027.11 19.6702 1021.07 21.5039C1020.28 21.7405 1019.46 21.299 1019.22 20.517C1018.98 19.7335 1019.43 18.9077 1020.21 18.6694C1027.11 16.5758 1035.69 17.5899 1041.55 21.194C1042.25 21.6228 1042.47 22.5349 1042.04 23.2305L1042.04 23.2303ZM1042.24 17.8431C1036.11 14.206 1026.01 13.8715 1020.17 15.646C1019.23 15.9307 1018.23 15.4007 1017.95 14.4619C1017.66 13.5226 1018.19 12.5304 1019.13 12.245C1025.84 10.2076 1037 10.6012 1044.05 14.7866C1044.9 15.2877 1045.17 16.3784 1044.67 17.2217C1044.17 18.0661 1043.08 18.3445 1042.24 17.8431H1042.24V17.8431ZM1063.69 18.5401C1060.41 17.7578 1059.83 17.2088 1059.83 16.0551C1059.83 14.9651 1060.85 14.2316 1062.38 14.2316C1063.86 14.2316 1065.33 14.7886 1066.86 15.9353C1066.91 15.97 1066.97 15.9838 1067.03 15.9747C1067.08 15.9661 1067.13 15.9346 1067.17 15.8872L1068.77 13.6292C1068.84 13.5362 1068.82 13.408 1068.73 13.337C1066.9 11.8684 1064.84 11.1544 1062.43 11.1544C1058.89 11.1544 1056.41 13.28 1056.41 16.3214C1056.41 19.5829 1058.55 20.7377 1062.23 21.6291C1065.37 22.3522 1065.9 22.958 1065.9 24.0409C1065.9 25.2409 1064.83 25.9869 1063.11 25.9869C1061.19 25.9869 1059.63 25.3419 1057.88 23.8288C1057.84 23.7913 1057.78 23.7743 1057.73 23.7775C1057.67 23.7823 1057.62 23.809 1057.58 23.8533L1055.78 25.9907C1055.71 26.0794 1055.72 26.2119 1055.8 26.2886C1057.84 28.1035 1060.34 29.0621 1063.04 29.0621C1066.85 29.0621 1069.32 26.9766 1069.32 23.7487C1069.33 21.0238 1067.69 19.515 1063.7 18.5431L1063.69 18.5401V18.5401ZM1077.95 15.3048C1076.3 15.3048 1074.94 15.9564 1073.82 17.2916V15.7887C1073.82 15.67 1073.73 15.5734 1073.61 15.5734H1070.67C1070.55 15.5734 1070.46 15.67 1070.46 15.7887V32.4878C1070.46 32.6064 1070.55 32.7031 1070.67 32.7031H1073.61C1073.73 32.7031 1073.82 32.6064 1073.82 32.4878V27.2166C1074.94 28.4726 1076.3 29.0863 1077.95 29.0863C1081.03 29.0863 1084.14 26.7199 1084.14 22.1963C1084.14 17.6716 1081.03 15.3045 1077.96 15.3045L1077.95 15.3048ZM1080.72 22.1963C1080.72 24.4999 1079.31 26.1074 1077.27 26.1074C1075.27 26.1074 1073.75 24.4268 1073.75 22.1963C1073.75 19.9661 1075.27 18.2853 1077.27 18.2853C1079.27 18.2851 1080.72 19.9295 1080.72 22.1961L1080.72 22.1963V22.1963ZM1092.12 15.3048C1088.16 15.3048 1085.06 18.3532 1085.06 22.2456C1085.06 26.0955 1088.14 29.112 1092.07 29.112C1096.04 29.112 1099.15 26.0738 1099.15 22.1963C1099.15 18.3323 1096.06 15.3052 1092.12 15.3052L1092.12 15.3048V15.3048ZM1092.12 26.1303C1090.01 26.1303 1088.42 24.4384 1088.42 22.1952C1088.42 19.9425 1089.96 18.3078 1092.07 18.3078C1094.19 18.3078 1095.79 19.9996 1095.79 22.2444C1095.79 24.4967 1094.24 26.1303 1092.12 26.1303H1092.12V26.1303ZM1107.61 15.5734H1104.37V12.2686C1104.37 12.1502 1104.28 12.0535 1104.16 12.0535H1101.22C1101.1 12.0535 1101.01 12.1502 1101.01 12.2686V15.5734H1099.59C1099.48 15.5734 1099.38 15.67 1099.38 15.7887V18.3132C1099.38 18.4317 1099.48 18.5285 1099.59 18.5285H1101.01V25.0607C1101.01 27.7005 1102.32 29.0389 1104.91 29.0389C1105.97 29.0389 1106.84 28.8213 1107.66 28.3542C1107.73 28.3167 1107.77 28.2446 1107.77 28.1679V25.7639C1107.77 25.6897 1107.73 25.6196 1107.67 25.5808C1107.61 25.5406 1107.53 25.5386 1107.46 25.571C1106.89 25.8557 1106.35 25.9871 1105.74 25.9871C1104.79 25.9871 1104.37 25.5592 1104.37 24.6002V18.5297H1107.61C1107.72 18.5297 1107.82 18.433 1107.82 18.3144V15.7901C1107.82 15.6714 1107.73 15.5748 1107.61 15.5748L1107.61 15.5734V15.5734ZM1118.87 15.5863V15.1804C1118.87 13.9863 1119.33 13.4538 1120.35 13.4538C1120.97 13.4538 1121.46 13.5754 1122.01 13.7592C1122.08 13.7806 1122.15 13.7699 1122.2 13.7293C1122.26 13.6887 1122.29 13.6235 1122.29 13.5546V11.0793C1122.29 10.9847 1122.23 10.9009 1122.14 10.873C1121.56 10.6999 1120.81 10.5223 1119.7 10.5223C1116.98 10.5223 1115.55 12.0501 1115.55 14.939V15.5607H1114.14C1114.02 15.5607 1113.92 15.6573 1113.92 15.7758V18.3132C1113.92 18.4317 1114.02 18.5285 1114.14 18.5285H1115.55V28.6042C1115.55 28.7228 1115.65 28.8195 1115.76 28.8195H1118.7C1118.82 28.8195 1118.92 28.7228 1118.92 28.6042V18.5292H1121.66L1125.86 28.6024C1125.38 29.6608 1124.91 29.8713 1124.27 29.8713C1123.76 29.8713 1123.21 29.7168 1122.65 29.4119C1122.6 29.3831 1122.54 29.3783 1122.48 29.3958C1122.43 29.4155 1122.38 29.4573 1122.36 29.5117L1121.36 31.6959C1121.31 31.7992 1121.35 31.9203 1121.45 31.9739C1122.49 32.5368 1123.43 32.777 1124.59 32.777C1126.76 32.777 1127.96 31.7667 1129.02 29.0486L1134.11 15.8803C1134.14 15.8141 1134.13 15.7392 1134.09 15.6805C1134.05 15.6222 1133.98 15.587 1133.91 15.587H1130.85C1130.76 15.587 1130.68 15.6453 1130.65 15.7313L1127.52 24.6791L1124.09 15.7254C1124.06 15.6421 1123.98 15.587 1123.89 15.587H1118.87L1118.87 15.5863V15.5863ZM1112.34 15.5734H1109.4C1109.28 15.5734 1109.19 15.67 1109.19 15.7887V28.6042C1109.19 28.7228 1109.28 28.8195 1109.4 28.8195H1112.34C1112.46 28.8195 1112.55 28.7228 1112.55 28.6042V15.7896C1112.55 15.7613 1112.55 15.7332 1112.54 15.7071C1112.53 15.6809 1112.51 15.6571 1112.49 15.6371C1112.47 15.6171 1112.45 15.6013 1112.42 15.5905C1112.39 15.5797 1112.37 15.5742 1112.34 15.5743L1112.34 15.5734ZM1110.89 9.73818C1109.72 9.73818 1108.78 10.6802 1108.78 11.8439C1108.78 13.0082 1109.72 13.9514 1110.89 13.9514C1112.05 13.9514 1112.99 13.0082 1112.99 11.8439C1112.99 10.6804 1112.05 9.73818 1110.89 9.73818H1110.89V9.73818ZM1136.62 19.6938C1135.46 19.6938 1134.55 18.7602 1134.55 17.6264C1134.55 16.4927 1135.47 15.5484 1136.63 15.5484C1137.79 15.5484 1138.7 16.4818 1138.7 17.6146C1138.7 18.7484 1137.78 19.6938 1136.62 19.6938H1136.62V19.6938ZM1136.63 15.754C1135.57 15.754 1134.77 16.5957 1134.77 17.6264C1134.77 18.6567 1135.57 19.4871 1136.62 19.4871C1137.68 19.4871 1138.48 18.6461 1138.48 17.6146C1138.48 16.5844 1137.68 15.754 1136.63 15.754H1136.63V15.754ZM1137.09 17.8272L1137.67 18.6458H1137.18L1136.65 17.8949H1136.2V18.6458H1135.79V16.4759H1136.76C1137.26 16.4759 1137.59 16.7339 1137.59 17.1682C1137.59 17.5239 1137.39 17.7413 1137.09 17.8272H1137.09V17.8272ZM1136.74 16.8482H1136.2V17.5346H1136.74C1137.01 17.5346 1137.17 17.4032 1137.17 17.1911C1137.17 16.9678 1137.01 16.8483 1136.74 16.8483H1136.74V16.8482Z" fill="#F9F4DA"/>
</svg>
