<?xml version="1.0" standalone="no"?><!DOCTYPE svg PUBLIC "-//W3C//DTD SVG 1.1//EN" "http://www.w3.org/Graphics/SVG/1.1/DTD/svg11.dtd"><svg t="1560995527910" class="icon" style="" viewBox="0 0 1024 1024" version="1.1" xmlns="http://www.w3.org/2000/svg" p-id="2159" xmlns:xlink="http://www.w3.org/1999/xlink" width="200" height="200"><defs><style type="text/css"></style></defs><path d="M376.672 285.248c0-82.702-69.85-149.805-156.116-149.805-86.148 0.06-156.056 67.103-156.056 149.805 0 40.25 16.597 76.809 43.521 103.78-7.343 29.532-11.164 60.255-11.164 91.931 0 142.423 78.148 267.398 195.518 337.419l31.223-123.012c-63.76-51.324-104.356-128.25-104.356-214.347 0-15.66 1.314-31.021 3.941-45.906 85.072-1.43 153.489-67.936 153.489-149.865z m133.906-83.656c53.97 0 104.416 14.052 147.818 38.643-6.866 16.85-10.508 35.129-10.508 54.242 0 82.761 69.849 149.805 155.996 149.805 86.148 0 156.116-67.103 156.116-149.805s-69.968-149.805-156.116-149.805c-20.179 0-39.521 3.691-57.133 10.36C679.708 110.257 598.457 84 510.578 84c-59.461 0-115.997 12.086-167.1 33.759l71.341 99.255c29.969-10.003 62.208-15.422 95.759-15.422z m290.858 291.93c-4.656 101.815-66.207 189.519-154.862 234.591-25.79-48.526-78.386-81.749-139.041-81.749-86.267 0-156.116 67.103-156.116 149.805 0 82.702 69.848 149.864 156.116 149.864 64.655 0 120.296-37.809 143.817-91.633 159.162-55.313 272.83-201.666 272.83-373.381 0-8.812-0.358-17.505-0.955-26.139l-121.789 38.642zM376.672 285.248c0-82.702-69.85-149.805-156.116-149.805-86.148 0.06-156.056 67.103-156.056 149.805 0 40.25 16.597 76.809 43.521 103.78-7.343 29.532-11.164 60.255-11.164 91.931 0 142.423 78.148 267.398 195.518 337.419l31.223-123.012c-63.76-51.324-104.356-128.25-104.356-214.347 0-15.66 1.314-31.021 3.941-45.906 85.072-1.43 153.489-67.936 153.489-149.865z m133.906-83.656c53.97 0 104.416 14.052 147.818 38.643-6.866 16.85-10.508 35.129-10.508 54.242 0 82.761 69.849 149.805 155.996 149.805 86.148 0 156.116-67.103 156.116-149.805s-69.968-149.805-156.116-149.805c-20.179 0-39.521 3.691-57.133 10.36C679.708 110.257 598.457 84 510.578 84c-59.461 0-115.997 12.086-167.1 33.759l71.341 99.255c29.969-10.003 62.208-15.422 95.759-15.422z m290.858 291.93c-4.656 101.815-66.207 189.519-154.862 234.591-25.79-48.526-78.386-81.749-139.041-81.749-86.267 0-156.116 67.103-156.116 149.805 0 82.702 69.848 149.864 156.116 149.864 64.655 0 120.296-37.809 143.817-91.633 159.162-55.313 272.83-201.666 272.83-373.381 0-8.812-0.358-17.505-0.955-26.139l-121.789 38.642zM376.672 285.248c0-82.702-69.85-149.805-156.116-149.805-86.148 0.06-156.056 67.103-156.056 149.805 0 40.25 16.597 76.809 43.521 103.78-7.343 29.532-11.164 60.255-11.164 91.931 0 142.423 78.148 267.398 195.518 337.419l31.223-123.012c-63.76-51.324-104.356-128.25-104.356-214.347 0-15.66 1.314-31.021 3.941-45.906 85.072-1.43 153.489-67.936 153.489-149.865z m133.906-83.656c53.97 0 104.416 14.052 147.818 38.643-6.866 16.85-10.508 35.129-10.508 54.242 0 82.761 69.849 149.805 155.996 149.805 86.148 0 156.116-67.103 156.116-149.805s-69.968-149.805-156.116-149.805c-20.179 0-39.521 3.691-57.133 10.36C679.708 110.257 598.457 84 510.578 84c-59.461 0-115.997 12.086-167.1 33.759l71.341 99.255c29.969-10.003 62.208-15.422 95.759-15.422z m290.858 291.93c-4.656 101.815-66.207 189.519-154.862 234.591-25.79-48.526-78.386-81.749-139.041-81.749-86.267 0-156.116 67.103-156.116 149.805 0 82.702 69.848 149.864 156.116 149.864 64.655 0 120.296-37.809 143.817-91.633 159.162-55.313 272.83-201.666 272.83-373.381 0-8.812-0.358-17.505-0.955-26.139l-121.789 38.642z" p-id="2160"></path></svg>
