<?xml version="1.0" standalone="no"?><!DOCTYPE svg PUBLIC "-//W3C//DTD SVG 1.1//EN" "http://www.w3.org/Graphics/SVG/1.1/DTD/svg11.dtd"><svg t="1561022835532" class="icon" viewBox="0 0 1024 1024" version="1.1" xmlns="http://www.w3.org/2000/svg" p-id="1978" xmlns:xlink="http://www.w3.org/1999/xlink" width="200" height="200"><defs><style type="text/css"></style></defs><path d="M136.757033 105.884991L553.373996 1.162a36.425997 36.425997 0 0 1 45.530996 36.424997v949.339916a36.425997 36.425997 0 0 1-43.254996 36.425997l-416.616963-77.404993a59.190995 59.190995 0 0 1-47.807996-56.914995V162.799986a59.190995 59.190995 0 0 1 45.531996-56.914995z m560.041951 828.679927h168.467985a66.020994 66.020994 0 0 0 66.020994-66.019994V153.692986a66.020994 66.020994 0 0 0-66.020994-66.021994H696.798984zM448.650006 433.714962c-25.041998 0-47.807996 34.148997-47.807996 77.403993s20.489998 77.403993 47.807996 77.403993 47.808996-34.148997 47.808995-77.403993-22.765998-77.403993-47.808995-77.403993z" p-id="1979"></path></svg>
